# xmcd CD database file
#
# Track frame offsets:
#	150
#	15448
#	26900
#	39122
#	53075
#	66713
#	78748
#	92113
#	107175
#	120360
#	133046
#	144250
#	157833
#	172663
#	186020
#	198803
#	211424
#	223975
#
# Disc length: 3152 seconds
#
# Revision: 0
# Processed by: cddbd v1.4PL0 Copyright (c) Steve Scherf et al.
# Submitted via: CDex 1.50
#
DISCID=f40c4e12
DTITLE=Lil Green - Romance In The Dark
DYEAR=2002
DGENRE=Blues
TTITLE0=Romance In The Dark
TTITLE1=Give Your Mama One Smile
TTITLE2=What Have I Done?
TTITLE3=What's The Matter With Love
TTITLE4=Love Me
TTITLE5=How Can I Go On?
TTITLE6=Why Don't You Do Right
TTITLE7=Just Rockin'
TTITLE8=Country Boy Blues
TTITLE9=I'm Wasting My Time On You
TTITLE10=If I'm A Fool
TTITLE11=Knockin' Myself Out
TTITLE12=Let's Be Friends
TTITLE13=I Won't Sell My Love
TTITLE14=Hello Babe
TTITLE15=I Have a Place To Go
TTITLE16=If You Want to Share Your Love
TTITLE17=If I Didn't Love You
EXTD=YEAR: 2002
EXTT0=
EXTT1=
EXTT2=
EXTT3=
EXTT4=
EXTT5=
EXTT6=
EXTT7=
EXTT8=
EXTT9=
EXTT10=
EXTT11=
EXTT12=
EXTT13=
EXTT14=
EXTT15=
EXTT16=
EXTT17=
PLAYORDER=
